<?xml version="1.0" encoding="UTF-8"?>
<svg id="Layer_2" data-name="Layer 2" xmlns="http://www.w3.org/2000/svg" viewBox="0 0 446.56 48.71">
  <defs>
    <style>
      .cls-1 {
        fill: #e68a24;
      }

      .cls-1, .cls-2, .cls-3, .cls-4, .cls-5, .cls-6 {
        stroke-width: 0px;
      }

      .cls-2 {
        fill: #c0382b;
      }

      .cls-3 {
        fill: #fff;
      }

      .cls-4 {
        fill: #f58c48;
      }

      .cls-5 {
        fill: #020305;
      }

      .cls-6 {
        fill: #436431;
      }
    </style>
  </defs>
  <g id="Layer_1-2" data-name="Layer 1">
    <g>
      <g>
        <rect class="cls-5" x="197.83" y="-7.78" width="48.71" height="64.27" transform="translate(197.83 246.54) rotate(-90)"/>
        <rect class="cls-2" x="6.69" y="-6.69" width="48.71" height="62.08" transform="translate(6.69 55.4) rotate(-90)"/>
        <rect class="cls-6" x="69.67" y="-7.78" width="48.71" height="64.27" transform="translate(69.67 118.38) rotate(-90)"/>
        <rect class="cls-1" x="133.75" y="-7.78" width="48.71" height="64.27" transform="translate(133.75 182.46) rotate(-90)"/>
        <rect class="cls-2" x="261.91" y="-7.78" width="48.71" height="64.27" transform="translate(261.91 310.62) rotate(-90)"/>
        <rect class="cls-6" x="325.99" y="-7.78" width="48.71" height="64.27" transform="translate(325.99 374.7) rotate(-90)"/>
        <rect class="cls-1" x="390.07" y="-7.78" width="48.71" height="64.27" transform="translate(390.07 438.78) rotate(-90)"/>
      </g>
      <g>
        <path class="cls-6" d="m220.03,45.98c-.78-.55-1.56-1.09-2.34-1.64,1.57-1.66,7.59-8.39,7.97-18.87.43-11.82-6.62-19.56-7.97-20.98.78-.59,1.56-1.17,2.34-1.76,1.39,1.45,9.56,10.21,8.79,23.45-.64,10.98-7.02,17.99-8.79,19.81Z"/>
        <path class="cls-6" d="m226.53,45.98c.78-.55,1.56-1.09,2.34-1.64-1.57-1.66-7.59-8.39-7.97-18.87-.43-11.82,6.62-19.56,7.97-20.98-.78-.59-1.56-1.17-2.34-1.76-1.39,1.45-9.56,10.21-8.79,23.45.64,10.98,7.02,17.99,8.79,19.81Z"/>
      </g>
      <g>
        <g>
          <path class="cls-5" d="m403.65,12.96l8.9,10.02,1.42-1.33c.1-.09.21-.15.32-.19l-8.98-10.11c-.82-.93-2.24-.99-3.15-.13l-2.41,2.26c-.44.41-.7.98-.73,1.59s.17,1.19.57,1.64l4.55,5.12,1.66-1.55s.02-.02.03-.03l-4.53-5.09,2.36-2.2Z"/>
          <path class="cls-5" d="m424.2,32.6l-4.21-4.73c-.05.11-.11.22-.21.31l-1.42,1.33,4.13,4.64-2.36,2.2-8.51-9.57s-.02.02-.03.03l-1.66,1.55,8.53,9.6c.31.35.71.58,1.13.68.69.16,1.45-.01,2.02-.55l2.41-2.26c.92-.85.99-2.3.17-3.23Z"/>
        </g>
        <g>
          <path class="cls-5" d="m412.5,25.83l-10.57,9.88-2.12-2.39,6.76-6.32-1.52-1.71-6.79,6.34c-.44.41-.7.98-.73,1.59-.03.61.17,1.19.57,1.64l2.17,2.45c.3.34.69.57,1.13.68.13.03.27.05.42.06.6.02,1.17-.19,1.61-.6l10.6-9.9-1.52-1.71Z"/>
          <path class="cls-5" d="m425.13,16.26c.03-.61-.17-1.19-.57-1.64l-2.17-2.45c-.82-.93-2.24-.99-3.15-.13l-11.07,10.35,1.52,1.71,11.05-10.32,2.12,2.39-7.23,6.76,1.52,1.71,7.26-6.78c.44-.41.7-.98.73-1.59Z"/>
        </g>
      </g>
      <g>
        <polygon class="cls-3" points="365.18 19.59 339.77 19.59 335.99 15.81 337.24 14.57 340.5 17.83 364.45 17.83 367.61 14.67 368.86 15.91 365.18 19.59"/>
        <path class="cls-3" d="m366.11,31.01h-27.37c-1.52,0-2.75-1.23-2.75-2.75v-4.59c0-1.52,1.23-2.75,2.75-2.75h27.37c1.52,0,2.75,1.23,2.75,2.75v4.59c0,1.52-1.23,2.75-2.75,2.75Zm-27.37-8.33c-.55,0-.99.44-.99.99v4.59c0,.55.44.99.99.99h27.37c.55,0,.99-.44.99-.99v-4.59c0-.55-.44-.99-.99-.99h-27.37Z"/>
        <rect class="cls-3" x="336.35" y="32.34" width="32.5" height="1.8"/>
      </g>
      <path class="cls-4" d="m297.51,26.88c-.47.55-.94,1.09-1.41,1.64-1.02-.09-2.2-.36-3.35-1.03-.68-.4-1.26-.75-1.59-1.46-.73-1.56.43-3.42.74-3.9.6-.96,1.36-1.55,1.84-1.86,1.07-.33,1.83-.52,2.36-.61.69.64,1.39,1.27,2.08,1.91,3.05-3.03,3.02-7.35,1.39-8.98-1.69-1.69-6.02-1.39-8.64,2.36.56.51,1.12,1.02,1.68,1.53,0,0,0,.01,0,.02.24.97-.09,1.75-.21,1.99-.26.47-.86,1.39-1.99,2.05-.45.26-1.28.76-2.34.72-2.38-.09-3.77-2.8-3.96-3.17-.17-.34-.41-.87-.57-1.58.85-.73,1.71-1.46,2.56-2.18-2.67-3.57-7.1-3.86-8.82-2.25-1.66,1.55-1.69,5.68,1.42,8.56.67-.57,1.34-1.14,2.01-1.71.45.05.94.17,1.44.41,2.02.96,2.54,2.99,2.6,3.26,0,0,0,0,0,0,.26.79.39,1.66.36,2.18-.04.72-.39,1.21-1.06,2.12-.77,1.06-1.25,1.73-2.12,2.19-1,.53-2.21.63-3.06.61-.64-.71-1.27-1.41-1.91-2.12-3.48,2.6-3.97,6.86-2.49,8.66,1.53,1.87,6.02,2.11,9.14-1.25-.38-.42-.76-.84-1.14-1.27.06-.76.28-1.92,1.04-3.1.38-.59,1.16-1.61,2.52-2.32.7-.37,1.7-.89,2.98-.72,1.56.21,2.85,1.35,3.36,2.52.17.39.53,1.22.57,2.09-.47.54-.93,1.08-1.4,1.62,2.96,2.97,7.08,2.63,8.44.89,1.32-1.68.77-5.53-2.5-7.8Z"/>
      <g>
        <polygon class="cls-2" points="163.14 23.36 163.14 14.51 160.9 15.44 160.9 22.53 163.14 23.36"/>
        <path class="cls-2" d="m159.35,29.95v-15.97h5.1s0-2.35,0-2.35h-5.1v-6.43s-2.49,0-2.49,0v6.43h-5.1s0,2.35,0,2.35h5.1v15.95c-2.73.36-5.45,1.93-5.45,4.06,0,2.44,3.63,9.54,6.69,9.54,3.06,0,6.69-7.1,6.69-9.54,0-2.09-2.74-3.64-5.45-4.03Z"/>
      </g>
      <g>
        <g>
          <rect class="cls-5" x="77.52" y="34.1" width="20.77" height="1.99" rx=".47" ry=".47" transform="translate(42.12 117.93) rotate(-82.83)"/>
          <rect class="cls-5" x="99.37" y="18.31" width="1.99" height="16.61" rx=".47" ry=".47" transform="translate(10.58 78.76) rotate(-45)"/>
          <rect class="cls-5" x="96.07" y="14.75" width="13.51" height="1.99" rx=".47" ry=".47" transform="translate(-1.06 10.41) rotate(-5.76)"/>
          <rect class="cls-5" x="90.05" y="7.46" width="11.15" height="1.99" rx=".47" ry=".47" transform="translate(46.9 91.17) rotate(-64.55)"/>
          <rect class="cls-5" x="84.64" y="4.13" width="1.99" height="9.72" rx=".47" ry=".47" transform="translate(.89 24.22) rotate(-16.18)"/>
          <rect class="cls-5" x="80.57" y="11.72" width="1.99" height="6.61" rx=".47" ry=".47" transform="translate(32.96 82.22) rotate(-64.55)"/>
        </g>
        <circle class="cls-5" cx="89.95" cy="18.56" r="3.53"/>
      </g>
      <path class="cls-6" d="m41.52,23.15h-7.44v-.21c.8-.73,1.67-1.65,2.49-2.85,1.27-1.85,1.94-3.6,2.3-4.83.29-.99.72-3.67-.8-6.09-.6-.95-1.33-1.57-1.82-1.93-1.08-.31-2.71-.63-4.69-.51-.47.03-.9.09-1.32.15h-.12s0,.02,0,.02c-.87.15-1.63.35-2.23.56-.48.42-1.14,1.09-1.71,2.07-1.2,2.07-1.13,4.08-1.09,4.77.16,3.35,2.18,5.6,3.07,6.59.64.71,1.3,1.27,1.96,1.75v.49h-7.35s0,3.96,0,3.96h7.35s0,14.88,0,14.88h3.96s0-14.88,0-14.88h7.44s0-3.96,0-3.96Zm-7.44-1.85v-.94h.65c-.23.36-.45.67-.65.94Zm3.38-7.8c.09,1.08-.21,1.89-.65,3.07-.39,1.06-.83,1.77-1.32,2.57-.03.05-.06.09-.09.14h-1.32v-1.18h1.23s0-1.07,0-1.07h-1.23v-1.13h1.23s0-1.07,0-1.07h-1.23v-1.13h1.23s0-1.07,0-1.07h-1.23v-3.57c.46.17.95.41,1.44.8.14.11,1.76,1.45,1.94,3.64Zm-10.46,2.52c-.31-1.14-.79-2.86.07-4.54.56-1.1,1.44-1.68,1.78-1.9.43-.28.86-.46,1.27-.59v3.64h-1.23s0,1.07,0,1.07h1.23v1.13h-1.23s0,1.07,0,1.07h1.23v1.13h-1.23s0,1.07,0,1.07h1.23v1.18h-1.5c-.63-.85-1.25-1.93-1.62-3.27Zm2.53,4.34h.59v.56c-.18-.16-.38-.35-.59-.56Z"/>
    </g>
  </g>
</svg>